<svg xmlns="http://www.w3.org/2000/svg" viewBox="0 0 612 792"><path fill="#F9D5CA" d="M244.4 460.8h123.9v330.6H244.4z"/><ellipse fill="#F2C9C0" cx="306.3" cy="661.8" rx="61.9" ry="35.4"/><path fill="#F9D5CA" d="M306.3 687.7c46.8-12.6 154.9-50.6 201.6-215.5l12.6-57.5c26.5-10.7 32.9-35.4 32.9-84.1 0-48-6.3-50.6-32.9-44.9l6.3-122C517.4 74.6 432.1 8.8 318.3 1.9V0h-25.2v.6C179.3 8.2 93.9 73.3 84.5 162.4l5.7 122c-25.3-5.1-31.6-3.2-31.6 44.9 0 48.7 7 72.7 32.9 83.4l12.6 58.8c46.7 165 155.4 203.6 202.2 216.2z"/><ellipse fill="#443B35" cx="412.1" cy="362.2" rx="32.9" ry="41.1"/><path fill="#49391D" d="M368.5 289.5s-12-28.4 0-30.3c42.3-8.2 96.1-23.4 125.2 55 13.8 36-26.6-60.7-125.2-24.7z"/><ellipse fill="#443B35" cx="199.9" cy="362.2" rx="32.9" ry="41.1"/><path fill="#49391D" d="M244.2 289.5s12-28.4 0-30.3c-42.3-8.2-96.1-23.4-125.2 55-13.9 36 25.9-60.7 125.2-24.7z"/><path fill="#F2C8C2" d="M277.9 434.9c-17.7 0-31.6 10.7-31.6 23.4s14.5 17.1 31.6 17.1c1.3 0 2.5 6.3 3.8 6.3 5.7 3.8 13.3 7 22.1 7s16.4-2.5 22.1-7c1.3 0 2.5-6.3 3.8-6.3 17.7 0 31.6-4.4 31.6-17.1s-14.5-23.4-31.6-23.4"/><path fill="#49391D" d="M306.9 0C171.7 0 73.1 77.7 73.1 173.8l5.7 153H106c-5.7-17.1-14.5-80.9-14.5-101.1 0-74 50.6-96.7 98-100.5 24.7 10.7 71.4 17.7 124.5 17.7s99.2-7 123.9-17.7c48 3.2 83.4 25.3 83.4 99.9 0 20.2-6.3 84.7-11.4 102.4h23.4l5.7-164.3C529.4 68.3 436.5 0 306.9 0z"/><g><path fill="#382B10" d="M331.6 56.9c80.3 0 152.3 32.2 203.5 83.4C514.3 57.5 425.8 0 306.9 0 171.7 0 73.1 77.7 73.1 173.8l1.9 41.7C128.1 60 217.2 56.9 331.6 56.9z"/></g><g><path fill="#D690A0" d="M225.4 543l163.1-.6c0-.1-86.6 111.8-163.1.6z"/><path fill="#FCFCFC" d="M239.9 561.3h130.2c12.6-9.5 18.3-19 18.3-19H224.1c5.1 6.3 10.2 12.7 15.8 19z"/></g></svg>