<svg viewBox="0 0 589 436" style="background-color:#ffffff00" xmlns="http://www.w3.org/2000/svg" width="589" height="436"><rect width="589" height="347" fill="#222" rx="20" ry="20"/><path d="M0 290v38c0 11.046 8.954 20 20 20h549c11.046 0 20-8.954 20-20v-38H0z" fill="#f3f3f3"/><path d="M283 319.5c0-6.904 5.596-12.5 12.5-12.5s12.5 5.596 12.5 12.5-5.596 12.5-12.5 12.5-12.5-5.596-12.5-12.5z" fill="#222"/><path d="M290 11c0-2.761 2.238-5 5-5s5 2.239 5 5-2.238 5-5 5-5-2.239-5-5z" fill="#565656"/><path fill="#cbcef1" d="M19 22h551v245H19z"/><path fill="#d9d9d9" d="M246 348h96v20h-96z"/><path fill="#e1e1e1" d="M246 365h96v68h-96z"/><rect x="168" y="411" width="256" height="25" fill="#f3f3f3" rx="3" ry="3"/><path d="M168 428v4.25c0 2.07 3.582 3.75 8 3.75h240c4.418 0 8-1.68 8-3.75V428H168z" fill="#fff"/></svg>