<svg viewBox="0 0 62 647" style="background-color:#ffffff00" xmlns="http://www.w3.org/2000/svg" width="62" height="647"><path d="M0 16.75C0 7.5 6.94 0 15.5 0h31C55.06 0 62 7.5 62 16.75v53.5C62 79.5 55.06 87 46.5 87h-31C6.94 87 0 79.5 0 70.25v-53.5z" fill="#cd4c4b"/><path d="M0 16.75v53.5C0 79.5 6.94 87 15.5 87H31V0H15.5C6.94 0 0 7.5 0 16.75z" fill="#f55c5c"/><path d="M0 94h31v489H0V94z" fill="#e3a140"/><path d="M31 94h31v489H31V94z" fill="#ce9138"/><path d="M31 70h31v25H31V70z" fill="#aaa"/><path d="M0 70h31v25H0V70z" fill="#ccc"/><path d="M31 647L0 583h62l-31 64z" fill="#f6b871"/><path d="M31 647l8.025-16.575c-2.447-.28-4.96-.425-7.525-.425-2.897 0-5.727.19-8.47.545L31 647z"/></svg>