<svg viewBox="0 0 678 97" style="background-color:#ffffff00" xmlns="http://www.w3.org/2000/svg" width="678" height="97"><path d="M0 0h678v97H0V0z" fill="#ccc"/><path d="M0 87h678v10H0V87zM18 0h2v30h-2V0zM58 0h2v30h-2V0zM22 0h2v20h-2V0zM26 0h2v20h-2V0zM30 0h2v20h-2V0zM34 0h2v20h-2V0zM42 0h2v20h-2V0zM46 0h2v20h-2V0zM50 0h2v20h-2V0zM54 0h2v20h-2V0zM38 0h2v25h-2V0z" fill="#a7a7a7"/><path d="M58 0h2v30h-2V0zM98 0h2v30h-2V0zM62 0h2v20h-2V0zM66 0h2v20h-2V0zM70 0h2v20h-2V0zM74 0h2v20h-2V0zM82 0h2v20h-2V0zM86 0h2v20h-2V0zM90 0h2v20h-2V0zM94 0h2v20h-2V0zM78 0h2v25h-2V0z" fill="#a7a7a7"/><path d="M98 0h2v30h-2V0zM138 0h2v30h-2V0zM102 0h2v20h-2V0zM106 0h2v20h-2V0zM110 0h2v20h-2V0zM114 0h2v20h-2V0zM122 0h2v20h-2V0zM126 0h2v20h-2V0zM130 0h2v20h-2V0zM134 0h2v20h-2V0zM118 0h2v25h-2V0z" fill="#a7a7a7"/><path d="M138 0h2v30h-2V0zM178 0h2v30h-2V0zM142 0h2v20h-2V0zM146 0h2v20h-2V0zM150 0h2v20h-2V0zM154 0h2v20h-2V0zM162 0h2v20h-2V0zM166 0h2v20h-2V0zM170 0h2v20h-2V0zM174 0h2v20h-2V0zM158 0h2v25h-2V0z" fill="#a7a7a7"/><path d="M178 0h2v30h-2V0zM218 0h2v30h-2V0zM182 0h2v20h-2V0zM186 0h2v20h-2V0zM190 0h2v20h-2V0zM194 0h2v20h-2V0zM202 0h2v20h-2V0zM206 0h2v20h-2V0zM210 0h2v20h-2V0zM214 0h2v20h-2V0zM198 0h2v25h-2V0z" fill="#a7a7a7"/><path d="M218 0h2v30h-2V0zM258 0h2v30h-2V0zM222 0h2v20h-2V0zM226 0h2v20h-2V0zM230 0h2v20h-2V0zM234 0h2v20h-2V0zM242 0h2v20h-2V0zM246 0h2v20h-2V0zM250 0h2v20h-2V0zM254 0h2v20h-2V0zM238 0h2v25h-2V0z" fill="#a7a7a7"/><path d="M258 0h2v30h-2V0zM298 0h2v30h-2V0zM262 0h2v20h-2V0zM266 0h2v20h-2V0zM270 0h2v20h-2V0zM274 0h2v20h-2V0zM282 0h2v20h-2V0zM286 0h2v20h-2V0zM290 0h2v20h-2V0zM294 0h2v20h-2V0zM278 0h2v25h-2V0z" fill="#a7a7a7"/><path d="M298 0h2v30h-2V0zM338 0h2v30h-2V0zM302 0h2v20h-2V0zM306 0h2v20h-2V0zM310 0h2v20h-2V0zM314 0h2v20h-2V0zM322 0h2v20h-2V0zM326 0h2v20h-2V0zM330 0h2v20h-2V0zM334 0h2v20h-2V0zM318 0h2v25h-2V0z" fill="#a7a7a7"/><path d="M338 0h2v30h-2V0zM378 0h2v30h-2V0zM342 0h2v20h-2V0zM346 0h2v20h-2V0zM350 0h2v20h-2V0zM354 0h2v20h-2V0zM362 0h2v20h-2V0zM366 0h2v20h-2V0zM370 0h2v20h-2V0zM374 0h2v20h-2V0zM358 0h2v25h-2V0z" fill="#a7a7a7"/><path d="M378 0h2v30h-2V0zM418 0h2v30h-2V0zM382 0h2v20h-2V0zM386 0h2v20h-2V0zM390 0h2v20h-2V0zM394 0h2v20h-2V0zM402 0h2v20h-2V0zM406 0h2v20h-2V0zM410 0h2v20h-2V0zM414 0h2v20h-2V0zM398 0h2v25h-2V0z" fill="#a7a7a7"/><path d="M418 0h2v30h-2V0zM458 0h2v30h-2V0zM422 0h2v20h-2V0zM426 0h2v20h-2V0zM430 0h2v20h-2V0zM434 0h2v20h-2V0zM442 0h2v20h-2V0zM446 0h2v20h-2V0zM450 0h2v20h-2V0zM454 0h2v20h-2V0zM438 0h2v25h-2V0z" fill="#a7a7a7"/><path d="M458 0h2v30h-2V0zM498 0h2v30h-2V0zM462 0h2v20h-2V0zM466 0h2v20h-2V0zM470 0h2v20h-2V0zM474 0h2v20h-2V0zM482 0h2v20h-2V0zM486 0h2v20h-2V0zM490 0h2v20h-2V0zM494 0h2v20h-2V0zM478 0h2v25h-2V0z" fill="#a7a7a7"/><path d="M498 0h2v30h-2V0zM538 0h2v30h-2V0zM502 0h2v20h-2V0zM506 0h2v20h-2V0zM510 0h2v20h-2V0zM514 0h2v20h-2V0zM522 0h2v20h-2V0zM526 0h2v20h-2V0zM530 0h2v20h-2V0zM534 0h2v20h-2V0zM518 0h2v25h-2V0z" fill="#a7a7a7"/><path d="M538 0h2v30h-2V0zM578 0h2v30h-2V0zM542 0h2v20h-2V0zM546 0h2v20h-2V0zM550 0h2v20h-2V0zM554 0h2v20h-2V0zM562 0h2v20h-2V0zM566 0h2v20h-2V0zM570 0h2v20h-2V0zM574 0h2v20h-2V0zM558 0h2v25h-2V0z" fill="#a7a7a7"/><path d="M578 0h2v30h-2V0zM618 0h2v30h-2V0zM582 0h2v20h-2V0zM586 0h2v20h-2V0zM590 0h2v20h-2V0zM594 0h2v20h-2V0zM602 0h2v20h-2V0zM606 0h2v20h-2V0zM610 0h2v20h-2V0zM614 0h2v20h-2V0zM598 0h2v25h-2V0z" fill="#a7a7a7"/><path d="M618 0h2v30h-2V0zM658 0h2v30h-2V0zM622 0h2v20h-2V0zM626 0h2v20h-2V0zM630 0h2v20h-2V0zM634 0h2v20h-2V0zM642 0h2v20h-2V0zM646 0h2v20h-2V0zM650 0h2v20h-2V0zM654 0h2v20h-2V0zM638 0h2v25h-2V0z" fill="#a7a7a7"/></svg>