<?xml version="1.0" encoding="utf-8"?>
<!-- Generator: Adobe Illustrator 18.0.0, SVG Export Plug-In . SVG Version: 6.00 Build 0)  -->
<!DOCTYPE svg PUBLIC "-//W3C//DTD SVG 1.1//EN" "http://www.w3.org/Graphics/SVG/1.1/DTD/svg11.dtd">
<svg version="1.1" xmlns="http://www.w3.org/2000/svg" xmlns:xlink="http://www.w3.org/1999/xlink" x="0px" y="0px"
	 viewBox="0 0 78.3 125.3" enable-background="new 0 0 78.3 125.3" xml:space="preserve">
<g id="neck">
	<rect x="29.4" y="72.9" fill="#F9D5CA" width="19.6" height="52.3"/>
</g>
<g id="neck_shadow">
	<ellipse fill="#F2C9C0" cx="39.2" cy="104.7" rx="9.8" ry="5.6"/>
</g>
<g id="base">
	<path fill="#F9D5CA" d="M39.2,108.8c7.4-2,24.5-8,31.9-34.1l2-9.1c4.2-1.7,5.2-5.6,5.2-13.3c0-7.6-1-8-5.2-7.1l1-19.3
		c-1.5-14.1-15-24.5-33-25.6V0c-1,0-1.4,0-2,0c-0.6,0-1,0-2,0v0.1c-18,1.2-31.5,11.5-33,25.6l0.9,19.3C1,44.2,0,44.5,0,52.1
		c0,7.7,1.1,11.5,5.2,13.2l2,9.3C14.6,100.7,31.8,106.8,39.2,108.8L39.2,108.8z"/>
</g>
<g id="eyes">
	<g>
		<ellipse fill="#443B35" cx="53.4" cy="57.3" rx="5.2" ry="6.5"/>
		<path fill="#49391D" d="M46.5,45.8c0,0-1.9-4.5,0-4.8c6.7-1.3,15.2-3.7,19.8,8.7C68.5,55.4,62.1,40.1,46.5,45.8z"/>
	</g>
</g>
<g id="eyebrows">
	<g>
		<ellipse fill="#443B35" cx="24.9" cy="57.3" rx="5.2" ry="6.5"/>
		<path fill="#49391D" d="M31.9,45.8c0,0,1.9-4.5,0-4.8c-6.7-1.3-15.2-3.7-19.8,8.7C9.9,55.4,16.2,40.1,31.9,45.8z"/>
	</g>
</g>
<g id="nose">
	<path fill="#F2C8C2" d="M34.7,68.8c-2.8,0-5,1.7-5,3.7s2.3,2.7,5,2.7c0.2,0,0.4,1,0.6,1c0.9,0.6,2.1,1.1,3.5,1.1
		c1.4,0,2.6-0.4,3.5-1.1c0.2,0,0.4-1,0.6-1c2.8,0,5-0.7,5-2.7s-2.3-3.7-5-3.7"/>
</g>
<g id="hair">
	<path fill="#49391D" d="M39.3,0C17.9,0,2.3,12.3,2.3,27.5l0.9,24.2h4.3C6.6,49,5.2,38.9,5.2,35.7c0-11.7,8-15.3,15.5-15.9
		c3.9,1.7,11.3,2.8,19.7,2.8c8.4,0,15.7-1.1,19.6-2.8c7.6,0.5,13.2,4,13.2,15.8c0,3.2-1,13.4-1.8,16.2h3.7l0.9-26
		C74.5,10.8,59.8,0,39.3,0z"/>
</g>
<g id="hair_shadow">
	<path fill="#382B10" d="M43.2,9c12.7,0,24.1,5.1,32.2,13.2C72.1,9.1,58.1,0,39.3,0C17.9,0,2.3,12.3,2.3,27.5l0.3,6.6
		C11,9.5,25.1,9,43.2,9z"/>
</g>
<g id="mouth">
	<path fill="#D690A0" d="M26.4,85.9l25.8-0.1C52.2,85.8,38.5,103.5,26.4,85.9z"/>
	<path fill="#FCFCFC" d="M28.7,88.8h20.6c2-1.5,2.9-3,2.9-3h-26C27,86.8,27.8,87.8,28.7,88.8z"/>
</g>
</svg>
