<?xml version="1.0" standalone="no"?><!-- Generator: Adobe Fireworks CS5, Export SVG Extension by Aaron Beall (http://fireworks.abeall.com) . Version: 0.6.1  --><!DOCTYPE svg PUBLIC "-//W3C//DTD SVG 1.1//EN" "http://www.w3.org/Graphics/SVG/1.1/DTD/svg11.dtd"><svg id="Untitled-Page%201" viewBox="0 0 678 97" style="background-color:#ffffff00" version="1.1"	xmlns="http://www.w3.org/2000/svg" xmlns:xlink="http://www.w3.org/1999/xlink" xml:space="preserve"	x="0px" y="0px" width="678px" height="97px">	<path d="M 0 0 L 678 0 L 678 97 L 0 97 L 0 0 Z" fill="#cccccc"/>	<path d="M 0 87 L 678 87 L 678 97 L 0 97 L 0 87 Z" fill="#a7a7a7"/>	<path d="M 18 0 L 20 0 L 20 30 L 18 30 L 18 0 Z" fill="#a7a7a7"/>	<path d="M 58 0 L 60 0 L 60 30 L 58 30 L 58 0 Z" fill="#a7a7a7"/>	<path d="M 22 0 L 24 0 L 24 20 L 22 20 L 22 0 Z" fill="#a7a7a7"/>	<path d="M 26 0 L 28 0 L 28 20 L 26 20 L 26 0 Z" fill="#a7a7a7"/>	<path d="M 30 0 L 32 0 L 32 20 L 30 20 L 30 0 Z" fill="#a7a7a7"/>	<path d="M 34 0 L 36 0 L 36 20 L 34 20 L 34 0 Z" fill="#a7a7a7"/>	<path d="M 42 0 L 44 0 L 44 20 L 42 20 L 42 0 Z" fill="#a7a7a7"/>	<path d="M 46 0 L 48 0 L 48 20 L 46 20 L 46 0 Z" fill="#a7a7a7"/>	<path d="M 50 0 L 52 0 L 52 20 L 50 20 L 50 0 Z" fill="#a7a7a7"/>	<path d="M 54 0 L 56 0 L 56 20 L 54 20 L 54 0 Z" fill="#a7a7a7"/>	<path d="M 38 0 L 40 0 L 40 25 L 38 25 L 38 0 Z" fill="#a7a7a7"/>	<path d="M 58 0 L 60 0 L 60 30 L 58 30 L 58 0 Z" fill="#a7a7a7"/>	<path d="M 98 0 L 100 0 L 100 30 L 98 30 L 98 0 Z" fill="#a7a7a7"/>	<path d="M 62 0 L 64 0 L 64 20 L 62 20 L 62 0 Z" fill="#a7a7a7"/>	<path d="M 66 0 L 68 0 L 68 20 L 66 20 L 66 0 Z" fill="#a7a7a7"/>	<path d="M 70 0 L 72 0 L 72 20 L 70 20 L 70 0 Z" fill="#a7a7a7"/>	<path d="M 74 0 L 76 0 L 76 20 L 74 20 L 74 0 Z" fill="#a7a7a7"/>	<path d="M 82 0 L 84 0 L 84 20 L 82 20 L 82 0 Z" fill="#a7a7a7"/>	<path d="M 86 0 L 88 0 L 88 20 L 86 20 L 86 0 Z" fill="#a7a7a7"/>	<path d="M 90 0 L 92 0 L 92 20 L 90 20 L 90 0 Z" fill="#a7a7a7"/>	<path d="M 94 0 L 96 0 L 96 20 L 94 20 L 94 0 Z" fill="#a7a7a7"/>	<path d="M 78 0 L 80 0 L 80 25 L 78 25 L 78 0 Z" fill="#a7a7a7"/>	<path d="M 98 0 L 100 0 L 100 30 L 98 30 L 98 0 Z" fill="#a7a7a7"/>	<path d="M 138 0 L 140 0 L 140 30 L 138 30 L 138 0 Z" fill="#a7a7a7"/>	<path d="M 102 0 L 104 0 L 104 20 L 102 20 L 102 0 Z" fill="#a7a7a7"/>	<path d="M 106 0 L 108 0 L 108 20 L 106 20 L 106 0 Z" fill="#a7a7a7"/>	<path d="M 110 0 L 112 0 L 112 20 L 110 20 L 110 0 Z" fill="#a7a7a7"/>	<path d="M 114 0 L 116 0 L 116 20 L 114 20 L 114 0 Z" fill="#a7a7a7"/>	<path d="M 122 0 L 124 0 L 124 20 L 122 20 L 122 0 Z" fill="#a7a7a7"/>	<path d="M 126 0 L 128 0 L 128 20 L 126 20 L 126 0 Z" fill="#a7a7a7"/>	<path d="M 130 0 L 132 0 L 132 20 L 130 20 L 130 0 Z" fill="#a7a7a7"/>	<path d="M 134 0 L 136 0 L 136 20 L 134 20 L 134 0 Z" fill="#a7a7a7"/>	<path d="M 118 0 L 120 0 L 120 25 L 118 25 L 118 0 Z" fill="#a7a7a7"/>	<path d="M 138 0 L 140 0 L 140 30 L 138 30 L 138 0 Z" fill="#a7a7a7"/>	<path d="M 178 0 L 180 0 L 180 30 L 178 30 L 178 0 Z" fill="#a7a7a7"/>	<path d="M 142 0 L 144 0 L 144 20 L 142 20 L 142 0 Z" fill="#a7a7a7"/>	<path d="M 146 0 L 148 0 L 148 20 L 146 20 L 146 0 Z" fill="#a7a7a7"/>	<path d="M 150 0 L 152 0 L 152 20 L 150 20 L 150 0 Z" fill="#a7a7a7"/>	<path d="M 154 0 L 156 0 L 156 20 L 154 20 L 154 0 Z" fill="#a7a7a7"/>	<path d="M 162 0 L 164 0 L 164 20 L 162 20 L 162 0 Z" fill="#a7a7a7"/>	<path d="M 166 0 L 168 0 L 168 20 L 166 20 L 166 0 Z" fill="#a7a7a7"/>	<path d="M 170 0 L 172 0 L 172 20 L 170 20 L 170 0 Z" fill="#a7a7a7"/>	<path d="M 174 0 L 176 0 L 176 20 L 174 20 L 174 0 Z" fill="#a7a7a7"/>	<path d="M 158 0 L 160 0 L 160 25 L 158 25 L 158 0 Z" fill="#a7a7a7"/>	<path d="M 178 0 L 180 0 L 180 30 L 178 30 L 178 0 Z" fill="#a7a7a7"/>	<path d="M 218 0 L 220 0 L 220 30 L 218 30 L 218 0 Z" fill="#a7a7a7"/>	<path d="M 182 0 L 184 0 L 184 20 L 182 20 L 182 0 Z" fill="#a7a7a7"/>	<path d="M 186 0 L 188 0 L 188 20 L 186 20 L 186 0 Z" fill="#a7a7a7"/>	<path d="M 190 0 L 192 0 L 192 20 L 190 20 L 190 0 Z" fill="#a7a7a7"/>	<path d="M 194 0 L 196 0 L 196 20 L 194 20 L 194 0 Z" fill="#a7a7a7"/>	<path d="M 202 0 L 204 0 L 204 20 L 202 20 L 202 0 Z" fill="#a7a7a7"/>	<path d="M 206 0 L 208 0 L 208 20 L 206 20 L 206 0 Z" fill="#a7a7a7"/>	<path d="M 210 0 L 212 0 L 212 20 L 210 20 L 210 0 Z" fill="#a7a7a7"/>	<path d="M 214 0 L 216 0 L 216 20 L 214 20 L 214 0 Z" fill="#a7a7a7"/>	<path d="M 198 0 L 200 0 L 200 25 L 198 25 L 198 0 Z" fill="#a7a7a7"/>	<path d="M 218 0 L 220 0 L 220 30 L 218 30 L 218 0 Z" fill="#a7a7a7"/>	<path d="M 258 0 L 260 0 L 260 30 L 258 30 L 258 0 Z" fill="#a7a7a7"/>	<path d="M 222 0 L 224 0 L 224 20 L 222 20 L 222 0 Z" fill="#a7a7a7"/>	<path d="M 226 0 L 228 0 L 228 20 L 226 20 L 226 0 Z" fill="#a7a7a7"/>	<path d="M 230 0 L 232 0 L 232 20 L 230 20 L 230 0 Z" fill="#a7a7a7"/>	<path d="M 234 0 L 236 0 L 236 20 L 234 20 L 234 0 Z" fill="#a7a7a7"/>	<path d="M 242 0 L 244 0 L 244 20 L 242 20 L 242 0 Z" fill="#a7a7a7"/>	<path d="M 246 0 L 248 0 L 248 20 L 246 20 L 246 0 Z" fill="#a7a7a7"/>	<path d="M 250 0 L 252 0 L 252 20 L 250 20 L 250 0 Z" fill="#a7a7a7"/>	<path d="M 254 0 L 256 0 L 256 20 L 254 20 L 254 0 Z" fill="#a7a7a7"/>	<path d="M 238 0 L 240 0 L 240 25 L 238 25 L 238 0 Z" fill="#a7a7a7"/>	<path d="M 258 0 L 260 0 L 260 30 L 258 30 L 258 0 Z" fill="#a7a7a7"/>	<path d="M 298 0 L 300 0 L 300 30 L 298 30 L 298 0 Z" fill="#a7a7a7"/>	<path d="M 262 0 L 264 0 L 264 20 L 262 20 L 262 0 Z" fill="#a7a7a7"/>	<path d="M 266 0 L 268 0 L 268 20 L 266 20 L 266 0 Z" fill="#a7a7a7"/>	<path d="M 270 0 L 272 0 L 272 20 L 270 20 L 270 0 Z" fill="#a7a7a7"/>	<path d="M 274 0 L 276 0 L 276 20 L 274 20 L 274 0 Z" fill="#a7a7a7"/>	<path d="M 282 0 L 284 0 L 284 20 L 282 20 L 282 0 Z" fill="#a7a7a7"/>	<path d="M 286 0 L 288 0 L 288 20 L 286 20 L 286 0 Z" fill="#a7a7a7"/>	<path d="M 290 0 L 292 0 L 292 20 L 290 20 L 290 0 Z" fill="#a7a7a7"/>	<path d="M 294 0 L 296 0 L 296 20 L 294 20 L 294 0 Z" fill="#a7a7a7"/>	<path d="M 278 0 L 280 0 L 280 25 L 278 25 L 278 0 Z" fill="#a7a7a7"/>	<path d="M 298 0 L 300 0 L 300 30 L 298 30 L 298 0 Z" fill="#a7a7a7"/>	<path d="M 338 0 L 340 0 L 340 30 L 338 30 L 338 0 Z" fill="#a7a7a7"/>	<path d="M 302 0 L 304 0 L 304 20 L 302 20 L 302 0 Z" fill="#a7a7a7"/>	<path d="M 306 0 L 308 0 L 308 20 L 306 20 L 306 0 Z" fill="#a7a7a7"/>	<path d="M 310 0 L 312 0 L 312 20 L 310 20 L 310 0 Z" fill="#a7a7a7"/>	<path d="M 314 0 L 316 0 L 316 20 L 314 20 L 314 0 Z" fill="#a7a7a7"/>	<path d="M 322 0 L 324 0 L 324 20 L 322 20 L 322 0 Z" fill="#a7a7a7"/>	<path d="M 326 0 L 328 0 L 328 20 L 326 20 L 326 0 Z" fill="#a7a7a7"/>	<path d="M 330 0 L 332 0 L 332 20 L 330 20 L 330 0 Z" fill="#a7a7a7"/>	<path d="M 334 0 L 336 0 L 336 20 L 334 20 L 334 0 Z" fill="#a7a7a7"/>	<path d="M 318 0 L 320 0 L 320 25 L 318 25 L 318 0 Z" fill="#a7a7a7"/>	<path d="M 338 0 L 340 0 L 340 30 L 338 30 L 338 0 Z" fill="#a7a7a7"/>	<path d="M 378 0 L 380 0 L 380 30 L 378 30 L 378 0 Z" fill="#a7a7a7"/>	<path d="M 342 0 L 344 0 L 344 20 L 342 20 L 342 0 Z" fill="#a7a7a7"/>	<path d="M 346 0 L 348 0 L 348 20 L 346 20 L 346 0 Z" fill="#a7a7a7"/>	<path d="M 350 0 L 352 0 L 352 20 L 350 20 L 350 0 Z" fill="#a7a7a7"/>	<path d="M 354 0 L 356 0 L 356 20 L 354 20 L 354 0 Z" fill="#a7a7a7"/>	<path d="M 362 0 L 364 0 L 364 20 L 362 20 L 362 0 Z" fill="#a7a7a7"/>	<path d="M 366 0 L 368 0 L 368 20 L 366 20 L 366 0 Z" fill="#a7a7a7"/>	<path d="M 370 0 L 372 0 L 372 20 L 370 20 L 370 0 Z" fill="#a7a7a7"/>	<path d="M 374 0 L 376 0 L 376 20 L 374 20 L 374 0 Z" fill="#a7a7a7"/>	<path d="M 358 0 L 360 0 L 360 25 L 358 25 L 358 0 Z" fill="#a7a7a7"/>	<path d="M 378 0 L 380 0 L 380 30 L 378 30 L 378 0 Z" fill="#a7a7a7"/>	<path d="M 418 0 L 420 0 L 420 30 L 418 30 L 418 0 Z" fill="#a7a7a7"/>	<path d="M 382 0 L 384 0 L 384 20 L 382 20 L 382 0 Z" fill="#a7a7a7"/>	<path d="M 386 0 L 388 0 L 388 20 L 386 20 L 386 0 Z" fill="#a7a7a7"/>	<path d="M 390 0 L 392 0 L 392 20 L 390 20 L 390 0 Z" fill="#a7a7a7"/>	<path d="M 394 0 L 396 0 L 396 20 L 394 20 L 394 0 Z" fill="#a7a7a7"/>	<path d="M 402 0 L 404 0 L 404 20 L 402 20 L 402 0 Z" fill="#a7a7a7"/>	<path d="M 406 0 L 408 0 L 408 20 L 406 20 L 406 0 Z" fill="#a7a7a7"/>	<path d="M 410 0 L 412 0 L 412 20 L 410 20 L 410 0 Z" fill="#a7a7a7"/>	<path d="M 414 0 L 416 0 L 416 20 L 414 20 L 414 0 Z" fill="#a7a7a7"/>	<path d="M 398 0 L 400 0 L 400 25 L 398 25 L 398 0 Z" fill="#a7a7a7"/>	<path d="M 418 0 L 420 0 L 420 30 L 418 30 L 418 0 Z" fill="#a7a7a7"/>	<path d="M 458 0 L 460 0 L 460 30 L 458 30 L 458 0 Z" fill="#a7a7a7"/>	<path d="M 422 0 L 424 0 L 424 20 L 422 20 L 422 0 Z" fill="#a7a7a7"/>	<path d="M 426 0 L 428 0 L 428 20 L 426 20 L 426 0 Z" fill="#a7a7a7"/>	<path d="M 430 0 L 432 0 L 432 20 L 430 20 L 430 0 Z" fill="#a7a7a7"/>	<path d="M 434 0 L 436 0 L 436 20 L 434 20 L 434 0 Z" fill="#a7a7a7"/>	<path d="M 442 0 L 444 0 L 444 20 L 442 20 L 442 0 Z" fill="#a7a7a7"/>	<path d="M 446 0 L 448 0 L 448 20 L 446 20 L 446 0 Z" fill="#a7a7a7"/>	<path d="M 450 0 L 452 0 L 452 20 L 450 20 L 450 0 Z" fill="#a7a7a7"/>	<path d="M 454 0 L 456 0 L 456 20 L 454 20 L 454 0 Z" fill="#a7a7a7"/>	<path d="M 438 0 L 440 0 L 440 25 L 438 25 L 438 0 Z" fill="#a7a7a7"/>	<path d="M 458 0 L 460 0 L 460 30 L 458 30 L 458 0 Z" fill="#a7a7a7"/>	<path d="M 498 0 L 500 0 L 500 30 L 498 30 L 498 0 Z" fill="#a7a7a7"/>	<path d="M 462 0 L 464 0 L 464 20 L 462 20 L 462 0 Z" fill="#a7a7a7"/>	<path d="M 466 0 L 468 0 L 468 20 L 466 20 L 466 0 Z" fill="#a7a7a7"/>	<path d="M 470 0 L 472 0 L 472 20 L 470 20 L 470 0 Z" fill="#a7a7a7"/>	<path d="M 474 0 L 476 0 L 476 20 L 474 20 L 474 0 Z" fill="#a7a7a7"/>	<path d="M 482 0 L 484 0 L 484 20 L 482 20 L 482 0 Z" fill="#a7a7a7"/>	<path d="M 486 0 L 488 0 L 488 20 L 486 20 L 486 0 Z" fill="#a7a7a7"/>	<path d="M 490 0 L 492 0 L 492 20 L 490 20 L 490 0 Z" fill="#a7a7a7"/>	<path d="M 494 0 L 496 0 L 496 20 L 494 20 L 494 0 Z" fill="#a7a7a7"/>	<path d="M 478 0 L 480 0 L 480 25 L 478 25 L 478 0 Z" fill="#a7a7a7"/>	<path d="M 498 0 L 500 0 L 500 30 L 498 30 L 498 0 Z" fill="#a7a7a7"/>	<path d="M 538 0 L 540 0 L 540 30 L 538 30 L 538 0 Z" fill="#a7a7a7"/>	<path d="M 502 0 L 504 0 L 504 20 L 502 20 L 502 0 Z" fill="#a7a7a7"/>	<path d="M 506 0 L 508 0 L 508 20 L 506 20 L 506 0 Z" fill="#a7a7a7"/>	<path d="M 510 0 L 512 0 L 512 20 L 510 20 L 510 0 Z" fill="#a7a7a7"/>	<path d="M 514 0 L 516 0 L 516 20 L 514 20 L 514 0 Z" fill="#a7a7a7"/>	<path d="M 522 0 L 524 0 L 524 20 L 522 20 L 522 0 Z" fill="#a7a7a7"/>	<path d="M 526 0 L 528 0 L 528 20 L 526 20 L 526 0 Z" fill="#a7a7a7"/>	<path d="M 530 0 L 532 0 L 532 20 L 530 20 L 530 0 Z" fill="#a7a7a7"/>	<path d="M 534 0 L 536 0 L 536 20 L 534 20 L 534 0 Z" fill="#a7a7a7"/>	<path d="M 518 0 L 520 0 L 520 25 L 518 25 L 518 0 Z" fill="#a7a7a7"/>	<path d="M 538 0 L 540 0 L 540 30 L 538 30 L 538 0 Z" fill="#a7a7a7"/>	<path d="M 578 0 L 580 0 L 580 30 L 578 30 L 578 0 Z" fill="#a7a7a7"/>	<path d="M 542 0 L 544 0 L 544 20 L 542 20 L 542 0 Z" fill="#a7a7a7"/>	<path d="M 546 0 L 548 0 L 548 20 L 546 20 L 546 0 Z" fill="#a7a7a7"/>	<path d="M 550 0 L 552 0 L 552 20 L 550 20 L 550 0 Z" fill="#a7a7a7"/>	<path d="M 554 0 L 556 0 L 556 20 L 554 20 L 554 0 Z" fill="#a7a7a7"/>	<path d="M 562 0 L 564 0 L 564 20 L 562 20 L 562 0 Z" fill="#a7a7a7"/>	<path d="M 566 0 L 568 0 L 568 20 L 566 20 L 566 0 Z" fill="#a7a7a7"/>	<path d="M 570 0 L 572 0 L 572 20 L 570 20 L 570 0 Z" fill="#a7a7a7"/>	<path d="M 574 0 L 576 0 L 576 20 L 574 20 L 574 0 Z" fill="#a7a7a7"/>	<path d="M 558 0 L 560 0 L 560 25 L 558 25 L 558 0 Z" fill="#a7a7a7"/>	<path d="M 578 0 L 580 0 L 580 30 L 578 30 L 578 0 Z" fill="#a7a7a7"/>	<path d="M 618 0 L 620 0 L 620 30 L 618 30 L 618 0 Z" fill="#a7a7a7"/>	<path d="M 582 0 L 584 0 L 584 20 L 582 20 L 582 0 Z" fill="#a7a7a7"/>	<path d="M 586 0 L 588 0 L 588 20 L 586 20 L 586 0 Z" fill="#a7a7a7"/>	<path d="M 590 0 L 592 0 L 592 20 L 590 20 L 590 0 Z" fill="#a7a7a7"/>	<path d="M 594 0 L 596 0 L 596 20 L 594 20 L 594 0 Z" fill="#a7a7a7"/>	<path d="M 602 0 L 604 0 L 604 20 L 602 20 L 602 0 Z" fill="#a7a7a7"/>	<path d="M 606 0 L 608 0 L 608 20 L 606 20 L 606 0 Z" fill="#a7a7a7"/>	<path d="M 610 0 L 612 0 L 612 20 L 610 20 L 610 0 Z" fill="#a7a7a7"/>	<path d="M 614 0 L 616 0 L 616 20 L 614 20 L 614 0 Z" fill="#a7a7a7"/>	<path d="M 598 0 L 600 0 L 600 25 L 598 25 L 598 0 Z" fill="#a7a7a7"/>	<path d="M 618 0 L 620 0 L 620 30 L 618 30 L 618 0 Z" fill="#a7a7a7"/>	<path d="M 658 0 L 660 0 L 660 30 L 658 30 L 658 0 Z" fill="#a7a7a7"/>	<path d="M 622 0 L 624 0 L 624 20 L 622 20 L 622 0 Z" fill="#a7a7a7"/>	<path d="M 626 0 L 628 0 L 628 20 L 626 20 L 626 0 Z" fill="#a7a7a7"/>	<path d="M 630 0 L 632 0 L 632 20 L 630 20 L 630 0 Z" fill="#a7a7a7"/>	<path d="M 634 0 L 636 0 L 636 20 L 634 20 L 634 0 Z" fill="#a7a7a7"/>	<path d="M 642 0 L 644 0 L 644 20 L 642 20 L 642 0 Z" fill="#a7a7a7"/>	<path d="M 646 0 L 648 0 L 648 20 L 646 20 L 646 0 Z" fill="#a7a7a7"/>	<path d="M 650 0 L 652 0 L 652 20 L 650 20 L 650 0 Z" fill="#a7a7a7"/>	<path d="M 654 0 L 656 0 L 656 20 L 654 20 L 654 0 Z" fill="#a7a7a7"/>	<path d="M 638 0 L 640 0 L 640 25 L 638 25 L 638 0 Z" fill="#a7a7a7"/></svg>