<?xml version="1.0" standalone="no"?><!-- Generator: Adobe Fireworks CS5, Export SVG Extension by Aaron Beall (http://fireworks.abeall.com) . Version: 0.6.1  --><!DOCTYPE svg PUBLIC "-//W3C//DTD SVG 1.1//EN" "http://www.w3.org/Graphics/SVG/1.1/DTD/svg11.dtd"><svg id="Untitled-Page%201" viewBox="0 0 62 742" style="background-color:#ffffff00" version="1.1"	xmlns="http://www.w3.org/2000/svg" xmlns:xlink="http://www.w3.org/1999/xlink" xml:space="preserve"	x="0px" y="0px" width="62px" height="742px">	<path d="M 0 144 L 31 144 L 31 742 L 0 742 L 0 144 Z" fill="#345cc4"/>	<path d="M 31 144 L 62 144 L 62 742 L 31 742 L 31 144 Z" fill="#284693"/>	<path d="M 31 134 L 56 134 L 56 144 L 31 144 L 31 134 Z" fill="#333333"/>	<path d="M 6 134 L 31 134 L 31 144 L 6 144 L 6 134 Z" fill="#555555"/>	<path d="M 0 0 L 31 0 L 31 134 L 0 134 L 0 0 Z" fill="#345cc4"/>	<path d="M 31 0 L 62 0 L 62 134 L 31 134 L 31 0 Z" fill="#284693"/></svg>