<?xml version="1.0" standalone="no"?><!-- Generator: Adobe Fireworks CS5, Export SVG Extension by Aaron Beall (http://fireworks.abeall.com) . Version: 0.6.1  --><!DOCTYPE svg PUBLIC "-//W3C//DTD SVG 1.1//EN" "http://www.w3.org/Graphics/SVG/1.1/DTD/svg11.dtd"><svg id="Untitled-Page%201" viewBox="0 0 312 87" style="background-color:#ffffff00" version="1.1"	xmlns="http://www.w3.org/2000/svg" xmlns:xlink="http://www.w3.org/1999/xlink" xml:space="preserve"	x="0px" y="0px" width="312px" height="87px">	<rect x="0" y="0" width="312" height="87" fill="#4156cc" rx="10" ry="10"/>	<path d="M 10 0 C 4.4771 0 0 3.2459 0 7.25 L 0 79.75 C 0 83.7541 4.4771 87 10 87 L 176 87 L 136 0 L 10 0 Z" fill="#cd4c4b"/>	<path d="M 312 59 L 312 79.75 C 312 83.7541 307.5229 87 302 87 L 156 87 L 156 59 L 312 59 Z" fill="#516bff"/>	<path d="M 0 59 L 0 79.75 C 0 83.7541 4.4771 87 10 87 L 176 87 L 163 59 L 0 59 Z" fill="#f55c5c"/></svg>