<?xml version="1.0" encoding="utf-8"?>
<!-- Generator: Adobe Illustrator 18.0.0, SVG Export Plug-In . SVG Version: 6.00 Build 0)  -->
<!DOCTYPE svg PUBLIC "-//W3C//DTD SVG 1.1//EN" "http://www.w3.org/Graphics/SVG/1.1/DTD/svg11.dtd">
<svg version="1.1" id="Layer_1" xmlns="http://www.w3.org/2000/svg" xmlns:xlink="http://www.w3.org/1999/xlink" x="0px" y="0px"
	 viewBox="0 0 612 792" enable-background="new 0 0 612 792" xml:space="preserve">
<g id="neck">
	<rect x="244.4" y="460.8" fill="#F9D5CA" width="123.9" height="330.6"/>
</g>
<g id="neck_shadow">
	<ellipse fill="#F2C9C0" cx="306.3" cy="661.8" rx="61.9" ry="35.4"/>
</g>
<g id="base">
	<path fill="#F9D5CA" d="M306.3,687.7c46.8-12.6,154.9-50.6,201.6-215.5l12.6-57.5c26.5-10.7,32.9-35.4,32.9-84.1
		c0-48-6.3-50.6-32.9-44.9l6.3-122C517.4,74.6,432.1,8.8,318.3,1.9V0c-6.3,0-8.8,0-12.6,0c-3.8,0-6.3,0-12.6,0v0.6
		C179.3,8.2,93.9,73.3,84.5,162.4l5.7,122c-25.3-5.1-31.6-3.2-31.6,44.9c0,48.7,7,72.7,32.9,83.4l12.6,58.8
		C150.8,636.5,259.5,675.1,306.3,687.7L306.3,687.7z"/>
</g>
<g id="eyes">
	<g>
		<ellipse fill="#443B35" cx="412.1" cy="362.2" rx="32.9" ry="41.1"/>
		<path fill="#49391D" d="M368.5,289.5c0,0-12-28.4,0-30.3c42.3-8.2,96.1-23.4,125.2,55C507.5,350.2,467.1,253.5,368.5,289.5z"/>
	</g>
</g>
<g id="eyebrows">
	<g>
		<ellipse fill="#443B35" cx="199.9" cy="362.2" rx="32.9" ry="41.1"/>
		<path fill="#49391D" d="M244.2,289.5c0,0,12-28.4,0-30.3c-42.3-8.2-96.1-23.4-125.2,55C105.1,350.2,144.9,253.5,244.2,289.5z"/>
	</g>
</g>
<g id="nose">
	<path fill="#F2C8C2" d="M277.9,434.9c-17.7,0-31.6,10.7-31.6,23.4s14.5,17.1,31.6,17.1c1.3,0,2.5,6.3,3.8,6.3
		c5.7,3.8,13.3,7,22.1,7c8.8,0,16.4-2.5,22.1-7c1.3,0,2.5-6.3,3.8-6.3c17.7,0,31.6-4.4,31.6-17.1s-14.5-23.4-31.6-23.4"/>
</g>
<g id="hair">
	<path fill="#49391D" d="M306.9,0C171.7,0,73.1,77.7,73.1,173.8l5.7,153h27.2c-5.7-17.1-14.5-80.9-14.5-101.1
		c0-74,50.6-96.7,98-100.5c24.7,10.7,71.4,17.7,124.5,17.7s99.2-7,123.9-17.7c48,3.2,83.4,25.3,83.4,99.9
		c0,20.2-6.3,84.7-11.4,102.4h23.4l5.7-164.3C529.4,68.3,436.5,0,306.9,0z"/>
</g>
<g id="hair_shadow">
	<path fill="#382B10" d="M331.6,56.9c80.3,0,152.3,32.2,203.5,83.4C514.3,57.5,425.8,0,306.9,0C171.7,0,73.1,77.7,73.1,173.8
		l1.9,41.7C128.1,60,217.2,56.9,331.6,56.9z"/>
</g>
<g id="mouth">
	<path fill="#D690A0" d="M225.4,543l163.1-0.6C388.5,542.3,301.9,654.2,225.4,543z"/>
	<path fill="#FCFCFC" d="M239.9,561.3h130.2c12.6-9.5,18.3-19,18.3-19H224.1C229.2,548.6,234.3,555,239.9,561.3z"/>
</g>
</svg>
