<?xml version="1.0" standalone="no"?><!-- Generator: Adobe Fireworks CS5, Export SVG Extension by Aaron Beall (http://fireworks.abeall.com) . Version: 0.6.1  --><!DOCTYPE svg PUBLIC "-//W3C//DTD SVG 1.1//EN" "http://www.w3.org/Graphics/SVG/1.1/DTD/svg11.dtd"><svg id="Untitled-Page%201" viewBox="0 0 589 436" style="background-color:#ffffff00" version="1.1"	xmlns="http://www.w3.org/2000/svg" xmlns:xlink="http://www.w3.org/1999/xlink" xml:space="preserve"	x="0px" y="0px" width="589px" height="436px">	<rect x="0" y="0" width="589" height="347" fill="#222222" rx="20" ry="20"/>	<path d="M 0 290 L 0 328 C 0 339.0458 8.9542 348 20 348 L 569 348 C 580.0458 348 589 339.0458 589 328 L 589 290 L 0 290 Z" fill="#f3f3f3"/>	<path id="Ellipse" d="M 283 319.5 C 283 312.5964 288.5963 307 295.5 307 C 302.4037 307 308 312.5964 308 319.5 C 308 326.4036 302.4037 332 295.5 332 C 288.5963 332 283 326.4036 283 319.5 Z" fill="#222222"/>	<path id="Ellipse2" d="M 290 11 C 290 8.2385 292.2385 6 295 6 C 297.7615 6 300 8.2385 300 11 C 300 13.7615 297.7615 16 295 16 C 292.2385 16 290 13.7615 290 11 Z" fill="#565656"/>	<rect x="19" y="22" width="551" height="245" fill="#cbcef1"/>	<rect x="246" y="348" width="96" height="20" fill="#d9d9d9"/>	<rect x="246" y="365" width="96" height="68" fill="#e1e1e1"/>	<rect x="168" y="411" width="256" height="25" fill="#f3f3f3" rx="3" ry="3"/>	<path d="M 168 428 L 168 432.25 C 168 434.321 171.5816 436 176 436 L 416 436 C 420.4184 436 424 434.321 424 432.25 L 424 428 L 168 428 Z" fill="#ffffff"/></svg>