<?xml version="1.0" standalone="no"?><!-- Generator: Adobe Fireworks CS5, Export SVG Extension by Aaron Beall (http://fireworks.abeall.com) . Version: 0.6.1  --><!DOCTYPE svg PUBLIC "-//W3C//DTD SVG 1.1//EN" "http://www.w3.org/Graphics/SVG/1.1/DTD/svg11.dtd"><svg id="Untitled-Page%201" viewBox="0 0 62 647" style="background-color:#ffffff00" version="1.1"	xmlns="http://www.w3.org/2000/svg" xmlns:xlink="http://www.w3.org/1999/xlink" xml:space="preserve"	x="0px" y="0px" width="62px" height="647px">	<g>		<path d="M 0 16.75 C 0 7.4991 6.9395 0 15.5 0 L 46.5 0 C 55.0605 0 62 7.4991 62 16.75 L 62 70.25 C 62 79.5009 55.0605 87 46.5 87 L 15.5 87 C 6.9395 87 0 79.5009 0 70.25 L 0 16.75 Z" fill="#cd4c4b"/>	</g>	<path d="M 0 16.75 L 0 70.25 C 0 79.5009 6.9395 87 15.5 87 L 31 87 L 31 0 L 15.5 0 C 6.9395 0 0 7.4991 0 16.75 Z" fill="#f55c5c"/>	<path d="M 0 94 L 31 94 L 31 583 L 0 583 L 0 94 Z" fill="#e3a140"/>	<path d="M 31 94 L 62 94 L 62 583 L 31 583 L 31 94 Z" fill="#ce9138"/>	<path d="M 31 70 L 62 70 L 62 95 L 31 95 L 31 70 Z" fill="#aaaaaa"/>	<path d="M 0 70 L 31 70 L 31 95 L 0 95 L 0 70 Z" fill="#cccccc"/>	<g>		<path d="M 31 647 L 0 583 L 62 583 L 31 647 Z" fill="#f6b871"/>	</g>	<path d="M 31 647 L 39.025 630.425 C 36.5781 630.144 34.0656 630 31.5 630 C 28.6032 630 25.7725 630.1887 23.03 630.545 L 31 647 Z" fill="#000000"/></svg>